<svg version="1.1" id="Layer_1" xmlns="http://www.w3.org/2000/svg" xmlns:xlink="http://www.w3.org/1999/xlink" x="0px" y="0px"
	 width="100%" viewBox="0 0 1080 1080" enable-background="new 0 0 1080 1080" xml:space="preserve">
<path fill="#000000" opacity="1.000000" stroke="none" 
	d="
M476.000000,1081.000000 
	C317.351593,1081.000000 159.203171,1081.000000 1.027377,1081.000000 
	C1.027377,721.059814 1.027377,361.119598 1.027377,1.089690 
	C360.898651,1.089690 720.797363,1.089690 1080.848022,1.089690 
	C1080.848022,360.999939 1080.848022,720.999939 1080.848022,1081.000000 
	C879.452454,1081.000000 677.976257,1081.000000 476.000000,1081.000000 
M1012.054443,568.707947 
	C1018.706970,551.916382 1025.374512,535.130676 1032.008301,518.331726 
	C1041.720459,493.737335 1051.416870,469.136749 1061.102051,444.531708 
	C1064.215820,436.621429 1067.272705,428.688690 1070.276733,420.968903 
	C1057.289185,410.649048 1044.657593,400.863159 1032.335205,390.702057 
	C1027.109741,386.393005 1022.070435,383.746735 1014.779297,383.801819 
	C964.793884,384.179504 914.804260,384.000061 864.815979,384.000061 
	C862.665649,384.000061 860.515381,384.000061 858.529175,384.000061 
	C836.725464,444.839294 815.036499,505.358307 793.023132,566.782471 
	C786.072449,547.792114 779.399902,530.056519 773.084229,512.194824 
	C762.599670,482.542633 752.358154,452.804565 741.943909,423.127319 
	C741.514526,421.903625 740.554443,420.705475 739.533142,419.874603 
	C727.119080,409.774658 714.542664,399.871399 702.240479,389.638062 
	C697.187988,385.435272 691.930786,383.808655 685.251099,383.846558 
	C635.431030,384.129150 585.608643,384.000061 535.786987,384.000061 
	C533.698914,384.000061 531.610840,384.000061 529.204041,384.000061 
	C530.785278,388.358734 532.130798,392.331970 533.658447,396.233917 
	C541.417419,416.052338 549.229980,435.849762 557.011536,455.659363 
	C566.917114,480.876099 576.805542,506.099579 586.711426,531.316223 
	C595.137878,552.766846 603.585632,574.209106 612.011292,595.660095 
	C621.914185,620.871826 631.785034,646.096130 641.703857,671.301575 
	C651.448608,696.064758 661.124023,720.856323 671.087708,745.531311 
	C673.412781,751.289246 675.583496,757.924927 679.901550,761.903259 
	C690.916931,772.052124 703.218384,780.791565 714.770081,790.378296 
	C719.831116,794.578491 725.093201,796.182373 731.767212,796.151550 
	C789.085938,795.887573 846.406311,796.000000 903.726196,796.000000 
	C909.058289,796.000000 914.391052,795.950073 919.722168,796.022522 
	C922.097168,796.054810 923.287415,795.583313 924.228027,792.822937 
	C927.137512,784.285095 930.747681,775.986145 934.077576,767.591248 
	C940.915100,750.353455 947.733398,733.108093 954.585632,715.876221 
	C961.676270,698.044434 968.891602,680.261658 975.884583,662.391785 
	C987.991150,631.454651 999.968323,600.466797 1012.054443,568.707947 
M241.500000,796.000000 
	C306.483307,796.000000 371.466614,796.020569 436.449829,795.952942 
	C440.702454,795.948547 445.067017,795.761719 449.187408,794.819519 
	C469.146515,790.256104 487.404877,782.633789 501.185791,766.444702 
	C512.030701,753.704651 518.759644,739.175415 518.840393,722.625122 
	C519.205505,647.812866 519.000122,572.997864 519.000122,498.183838 
	C519.000183,473.523529 519.035645,448.863098 518.923462,424.203278 
	C518.915649,422.481842 518.335999,420.124420 517.137695,419.145538 
	C504.764404,409.038605 492.162445,399.212402 479.730286,389.176544 
	C475.535980,385.790680 471.321838,383.828186 465.565002,383.857025 
	C415.912384,384.105713 366.257996,384.000000 316.604156,384.000000 
	C314.833771,384.000000 313.063354,384.000000 311.000000,384.000000 
	C311.000000,386.366241 311.000000,388.170776 311.000000,389.975342 
	C311.000000,433.797363 311.000000,477.619385 311.000000,521.441406 
	C311.000000,554.432922 311.007111,587.424377 310.995514,620.415894 
	C310.992188,629.894653 307.271820,634.936890 298.291840,636.757751 
	C294.926697,637.440063 291.324646,636.985229 287.830505,636.993591 
	C279.583588,637.013367 271.336609,637.000000 262.999634,637.000000 
	C262.999634,628.417542 263.177673,620.582397 262.877441,612.765564 
	C262.800049,610.749756 261.751343,608.142273 260.245789,606.908997 
	C247.264313,596.275146 234.151016,585.796448 220.866623,575.544189 
	C218.922043,574.043457 215.446198,572.739624 213.394058,573.440063 
	C191.111557,581.045410 169.002945,589.157715 146.785645,596.957214 
	C117.566650,607.214722 88.326096,617.414185 58.998718,627.355042 
	C55.481506,628.547241 54.915195,630.166016 54.940151,633.358521 
	C55.069096,649.853210 54.938297,666.349976 55.045338,682.844971 
	C55.070782,686.765991 55.492260,690.706238 56.020782,694.598389 
	C58.443745,712.441101 67.399132,726.792053 80.856499,738.180725 
	C95.672493,750.719360 111.066200,762.575928 126.221062,774.713562 
	C143.692719,788.706787 163.612869,795.891479 186.014114,795.984619 
	C204.175797,796.060181 222.338013,796.000000 241.500000,796.000000 
z"/>
<path fill="#FFD700" opacity="1.000000" stroke="none" 
	d="
M1012.027100,569.104065 
	C999.968323,600.466797 987.991150,631.454651 975.884583,662.391785 
	C968.891602,680.261658 961.676270,698.044434 954.585632,715.876221 
	C947.733398,733.108093 940.915100,750.353455 934.077576,767.591248 
	C930.747681,775.986145 927.137512,784.285095 924.228027,792.822937 
	C923.287415,795.583313 922.097168,796.054810 919.722168,796.022522 
	C914.391052,795.950073 909.058289,796.000000 903.726196,796.000000 
	C846.406311,796.000000 789.085938,795.887573 731.767212,796.151550 
	C725.093201,796.182373 719.831116,794.578491 714.770081,790.378296 
	C703.218384,780.791565 690.916931,772.052124 679.901550,761.903259 
	C675.583496,757.924927 673.412781,751.289246 671.087708,745.531311 
	C661.124023,720.856323 651.448608,696.064758 641.703857,671.301575 
	C631.785034,646.096130 621.914185,620.871826 612.011292,595.660095 
	C603.585632,574.209106 595.137878,552.766846 586.711426,531.316223 
	C576.805542,506.099579 566.917114,480.876099 557.011536,455.659363 
	C549.229980,435.849762 541.417419,416.052338 533.658447,396.233917 
	C532.130798,392.331970 530.785278,388.358734 529.204041,384.000061 
	C531.610840,384.000061 533.698914,384.000061 535.786987,384.000061 
	C585.608643,384.000061 635.431030,384.129150 685.251099,383.846558 
	C691.930786,383.808655 697.187988,385.435272 702.240479,389.638062 
	C714.542664,399.871399 727.119080,409.774658 739.533142,419.874603 
	C740.554443,420.705475 741.514526,421.903625 741.943909,423.127319 
	C752.358154,452.804565 762.599670,482.542633 773.084229,512.194824 
	C779.399902,530.056519 786.072449,547.792114 793.023132,566.782471 
	C815.036499,505.358307 836.725464,444.839294 858.529175,384.000061 
	C860.515381,384.000061 862.665649,384.000061 864.815979,384.000061 
	C914.804260,384.000061 964.793884,384.179504 1014.779297,383.801819 
	C1022.070435,383.746735 1027.109741,386.393005 1032.335205,390.702057 
	C1044.657593,400.863159 1057.289185,410.649048 1070.276733,420.968903 
	C1067.272705,428.688690 1064.215820,436.621429 1061.102051,444.531708 
	C1051.416870,469.136749 1041.720459,493.737335 1032.008301,518.331726 
	C1025.374512,535.130676 1018.706970,551.916382 1012.027100,569.104065 
M801.976135,555.266968 
	C801.341858,556.412231 800.531982,557.495178 800.099915,558.712158 
	C794.379517,574.826416 788.720825,590.962585 783.026855,607.086243 
	C781.042725,612.704590 779.004028,618.303772 776.718872,624.667542 
	C775.485657,622.654968 774.594727,621.639648 774.179626,620.457275 
	C768.731262,604.935181 763.443787,589.356140 757.928650,573.858093 
	C750.733398,553.638672 743.302002,533.503357 736.095215,513.288025 
	C721.740356,473.022034 707.393372,432.752716 693.298889,392.395447 
	C692.085876,388.922211 690.813538,387.912445 687.270508,387.920959 
	C638.611206,388.038086 589.951477,387.999939 541.291870,387.999939 
	C539.376587,387.999939 537.461365,387.999939 535.224915,387.999939 
	C583.454285,510.886108 631.510193,633.330139 679.557556,755.777527 
	C679.714050,755.834778 679.870605,755.942078 680.027100,755.942139 
	C743.683716,755.966187 807.340332,756.002197 870.996521,755.866333 
	C872.325867,755.863525 874.295105,754.140808 874.872559,752.762390 
	C878.358032,744.442200 881.507324,735.981628 884.800964,727.580566 
	C893.865234,704.460815 902.959961,681.352966 912.014709,658.229431 
	C920.540894,636.455688 929.000854,614.656006 937.547241,592.890198 
	C945.324951,573.082092 953.214539,553.317932 960.991455,533.509521 
	C970.891418,508.293610 980.693542,483.039337 990.601257,457.826477 
	C999.674255,434.737946 1008.831360,411.682526 1018.087524,388.268188 
	C965.691956,388.268188 913.625366,388.268188 861.350525,388.268188 
	C841.592468,443.598206 821.798401,499.029297 801.976135,555.266968 
z"/>
<path fill="#FFD700" opacity="1.000000" stroke="none" 
	d="
M241.000000,796.000000 
	C222.338013,796.000000 204.175797,796.060181 186.014114,795.984619 
	C163.612869,795.891479 143.692719,788.706787 126.221062,774.713562 
	C111.066200,762.575928 95.672493,750.719360 80.856499,738.180725 
	C67.399132,726.792053 58.443745,712.441101 56.020782,694.598389 
	C55.492260,690.706238 55.070782,686.765991 55.045338,682.844971 
	C54.938297,666.349976 55.069096,649.853210 54.940151,633.358521 
	C54.915195,630.166016 55.481506,628.547241 58.998718,627.355042 
	C88.326096,617.414185 117.566650,607.214722 146.785645,596.957214 
	C169.002945,589.157715 191.111557,581.045410 213.394058,573.440063 
	C215.446198,572.739624 218.922043,574.043457 220.866623,575.544189 
	C234.151016,585.796448 247.264313,596.275146 260.245789,606.908997 
	C261.751343,608.142273 262.800049,610.749756 262.877441,612.765564 
	C263.177673,620.582397 262.999634,628.417542 262.999634,637.000000 
	C271.336609,637.000000 279.583588,637.013367 287.830505,636.993591 
	C291.324646,636.985229 294.926697,637.440063 298.291840,636.757751 
	C307.271820,634.936890 310.992188,629.894653 310.995514,620.415894 
	C311.007111,587.424377 311.000000,554.432922 311.000000,521.441406 
	C311.000000,477.619385 311.000000,433.797363 311.000000,389.975342 
	C311.000000,388.170776 311.000000,386.366241 311.000000,384.000000 
	C313.063354,384.000000 314.833771,384.000000 316.604156,384.000000 
	C366.257996,384.000000 415.912384,384.105713 465.565002,383.857025 
	C471.321838,383.828186 475.535980,385.790680 479.730286,389.176544 
	C492.162445,399.212402 504.764404,409.038605 517.137695,419.145538 
	C518.335999,420.124420 518.915649,422.481842 518.923462,424.203278 
	C519.035645,448.863098 519.000183,473.523529 519.000122,498.183838 
	C519.000122,572.997864 519.205505,647.812866 518.840393,722.625122 
	C518.759644,739.175415 512.030701,753.704651 501.185791,766.444702 
	C487.404877,782.633789 469.146515,790.256104 449.187408,794.819519 
	C445.067017,795.761719 440.702454,795.948547 436.449829,795.952942 
	C371.466614,796.020569 306.483307,796.000000 241.000000,796.000000 
M425.237946,746.951904 
	C435.747955,741.064575 445.986511,734.971863 453.535004,725.089661 
	C463.432495,712.132141 468.995728,697.821716 468.996826,681.458069 
	C469.003296,585.652954 469.000000,489.847900 469.000000,394.042816 
	C469.000000,392.111450 469.000000,390.180054 469.000000,388.316864 
	C417.338257,388.316864 366.284821,388.316864 315.000000,388.316864 
	C315.000000,390.445740 315.000000,392.259308 315.000000,394.072845 
	C315.000000,469.717194 315.068207,545.361694 314.941223,621.005798 
	C314.916443,635.777527 307.295471,640.390625 295.933685,640.783020 
	C274.299194,641.530151 252.608063,641.429993 230.966171,640.799072 
	C221.612030,640.526367 212.579971,634.063110 212.902161,622.439392 
	C213.307938,607.800781 213.000000,593.142456 213.000000,578.264099 
	C205.558212,580.688660 198.294098,582.882141 191.150635,585.415771 
	C171.092026,592.530151 151.137070,599.939514 131.040329,606.942932 
	C108.491386,614.800964 85.842957,622.374695 63.207813,629.982849 
	C60.130939,631.017029 58.874413,632.576843 58.914234,636.016235 
	C59.105183,652.509155 58.946751,669.005859 59.045113,685.500427 
	C59.064472,688.747681 59.356750,692.059937 60.052441,695.225952 
	C65.262627,718.937317 79.551994,735.566772 100.882607,746.330017 
	C115.281937,753.595825 131.080017,755.839539 146.852188,755.841553 
	C227.087967,755.851685 307.323700,755.288330 387.559814,755.045715 
	C400.496399,755.006592 412.660980,752.002319 425.237946,746.951904 
z"/>
<path fill="#000000" opacity="1.000000" stroke="none" 
	d="
M801.990234,554.863647 
	C821.798401,499.029297 841.592468,443.598206 861.350525,388.268188 
	C913.625366,388.268188 965.691956,388.268188 1018.087524,388.268188 
	C1008.831360,411.682526 999.674255,434.737946 990.601257,457.826477 
	C980.693542,483.039337 970.891418,508.293610 960.991455,533.509521 
	C953.214539,553.317932 945.324951,573.082092 937.547241,592.890198 
	C929.000854,614.656006 920.540894,636.455688 912.014709,658.229431 
	C902.959961,681.352966 893.865234,704.460815 884.800964,727.580566 
	C881.507324,735.981628 878.358032,744.442200 874.872559,752.762390 
	C874.295105,754.140808 872.325867,755.863525 870.996521,755.866333 
	C807.340332,756.002197 743.683716,755.966187 680.027100,755.942139 
	C679.870605,755.942078 679.714050,755.834778 679.561829,755.775879 
	C631.510193,633.330139 583.454285,510.886108 535.224915,387.999939 
	C537.461365,387.999939 539.376587,387.999939 541.291870,387.999939 
	C589.951477,387.999939 638.611206,388.038086 687.270508,387.920959 
	C690.813538,387.912445 692.085876,388.922211 693.298889,392.395447 
	C707.393372,432.752716 721.740356,473.022034 736.095215,513.288025 
	C743.302002,533.503357 750.733398,553.638672 757.928650,573.858093 
	C763.443787,589.356140 768.731262,604.935181 774.179626,620.457275 
	C774.594727,621.639648 775.485657,622.654968 776.718872,624.667542 
	C779.004028,618.303772 781.042725,612.704590 783.026855,607.086243 
	C788.720825,590.962585 794.379517,574.826416 800.099915,558.712158 
	C800.531982,557.495178 801.341858,556.412231 801.990234,554.863647 
M915.526733,627.968262 
	C920.668274,614.756592 925.760925,601.525635 930.961670,588.337280 
	C940.602661,563.889160 950.382263,539.495544 959.964294,515.024475 
	C970.486816,488.151367 980.830444,461.208282 991.294434,434.312195 
	C996.193298,421.720276 1001.191772,409.167145 1006.139282,396.611267 
	C1005.462402,396.299744 1005.181091,396.057007 1004.899719,396.056824 
	C959.909729,396.026703 914.919678,395.986359 869.930298,396.138031 
	C868.621826,396.142456 866.642639,397.927521 866.119202,399.313904 
	C860.305786,414.710114 854.604553,430.151184 849.094177,445.658752 
	C838.565063,475.290436 828.263000,505.002869 817.711182,534.626465 
	C806.725159,565.469177 795.552368,596.245422 784.468689,627.053345 
	C781.872742,634.269043 779.306030,641.495300 776.643555,648.946838 
	C775.829468,648.254883 775.437012,648.087952 775.341797,647.816711 
	C767.433289,625.298401 759.635803,602.740540 751.636108,580.254761 
	C743.582214,557.616577 735.220886,535.087708 727.187683,512.442261 
	C714.032959,475.359009 700.950073,438.249481 688.092407,401.062653 
	C686.700684,397.037537 684.966187,395.888550 680.842407,395.903778 
	C638.351990,396.060516 595.860718,396.000000 553.369690,396.000000 
	C551.623230,396.000000 549.876770,396.000000 547.531128,396.000000 
	C548.113403,397.957489 548.404297,399.194702 548.845947,400.375549 
	C550.878418,405.809998 552.906311,411.247009 555.020630,416.649902 
	C564.246765,440.225891 573.490295,463.795105 582.751160,487.357452 
	C590.479614,507.020721 598.262451,526.662659 605.982605,546.329163 
	C615.289001,570.036621 624.553162,593.760620 633.838379,617.476440 
	C643.891113,643.152527 653.951172,668.825806 663.999878,694.503479 
	C670.228455,710.419495 676.502991,726.318176 682.614807,742.278992 
	C683.971130,745.820923 685.867065,747.179688 689.876465,747.115479 
	C706.868530,746.843140 723.867432,747.000000 740.863831,747.000000 
	C782.021790,747.000000 823.179932,747.033142 864.337402,746.892334 
	C866.200684,746.885986 869.209839,745.763306 869.751465,744.395081 
	C885.005554,705.860840 900.010315,667.227905 915.526733,627.968262 
z"/>
<path fill="#000000" opacity="1.000000" stroke="none" 
	d="
M424.845154,746.976685 
	C412.660980,752.002319 400.496399,755.006592 387.559814,755.045715 
	C307.323700,755.288330 227.087967,755.851685 146.852188,755.841553 
	C131.080017,755.839539 115.281937,753.595825 100.882607,746.330017 
	C79.551994,735.566772 65.262627,718.937317 60.052441,695.225952 
	C59.356750,692.059937 59.064472,688.747681 59.045113,685.500427 
	C58.946751,669.005859 59.105183,652.509155 58.914234,636.016235 
	C58.874413,632.576843 60.130939,631.017029 63.207813,629.982849 
	C85.842957,622.374695 108.491386,614.800964 131.040329,606.942932 
	C151.137070,599.939514 171.092026,592.530151 191.150635,585.415771 
	C198.294098,582.882141 205.558212,580.688660 213.000000,578.264099 
	C213.000000,593.142456 213.307938,607.800781 212.902161,622.439392 
	C212.579971,634.063110 221.612030,640.526367 230.966171,640.799072 
	C252.608063,641.429993 274.299194,641.530151 295.933685,640.783020 
	C307.295471,640.390625 314.916443,635.777527 314.941223,621.005798 
	C315.068207,545.361694 315.000000,469.717194 315.000000,394.072845 
	C315.000000,392.259308 315.000000,390.445740 315.000000,388.316864 
	C366.284821,388.316864 417.338257,388.316864 469.000000,388.316864 
	C469.000000,390.180054 469.000000,392.111450 469.000000,394.042816 
	C469.000000,489.847900 469.003296,585.652954 468.996826,681.458069 
	C468.995728,697.821716 463.432495,712.132141 453.535004,725.089661 
	C445.986511,734.971863 435.747955,741.064575 424.845154,746.976685 
M460.999756,452.500000 
	C460.999756,433.740082 460.999756,414.980133 460.999756,396.349243 
	C414.628387,396.349243 368.897522,396.349243 323.000244,396.349243 
	C323.000244,406.353851 323.000244,416.009827 323.000244,425.665833 
	C323.000244,491.499054 322.945831,557.332336 323.041626,623.165405 
	C323.063324,638.085632 310.756195,648.668030 298.739166,648.880432 
	C275.579773,649.289856 252.398178,649.403625 229.245346,648.838501 
	C216.656647,648.531128 204.645996,638.426331 204.951859,624.003235 
	C205.190857,612.732422 204.999741,601.452515 204.999741,589.390625 
	C158.534027,605.597351 112.772385,621.558472 66.999855,637.523438 
	C66.999855,652.664612 67.043098,667.492920 66.988373,682.320801 
	C66.926750,699.019043 73.367577,713.326050 84.701141,724.925293 
	C98.823792,739.379028 117.008018,746.693176 136.946625,746.806152 
	C218.777176,747.270142 300.612000,746.930908 382.444977,747.057983 
	C398.912140,747.083496 414.512268,744.083496 428.738708,735.634705 
	C448.854614,723.688293 460.687683,705.990662 460.828644,682.498535 
	C461.286713,606.168091 460.999847,529.833191 460.999756,452.500000 
z"/>
<path fill="#FFD700" opacity="1.000000" stroke="none" 
	d="
M915.291321,628.289673 
	C900.010315,667.227905 885.005554,705.860840 869.751465,744.395081 
	C869.209839,745.763306 866.200684,746.885986 864.337402,746.892334 
	C823.179932,747.033142 782.021790,747.000000 740.863831,747.000000 
	C723.867432,747.000000 706.868530,746.843140 689.876465,747.115479 
	C685.867065,747.179688 683.971130,745.820923 682.614807,742.278992 
	C676.502991,726.318176 670.228455,710.419495 663.999878,694.503479 
	C653.951172,668.825806 643.891113,643.152527 633.838379,617.476440 
	C624.553162,593.760620 615.289001,570.036621 605.982605,546.329163 
	C598.262451,526.662659 590.479614,507.020721 582.751160,487.357452 
	C573.490295,463.795105 564.246765,440.225891 555.020630,416.649902 
	C552.906311,411.247009 550.878418,405.809998 548.845947,400.375549 
	C548.404297,399.194702 548.113403,397.957489 547.531128,396.000000 
	C549.876770,396.000000 551.623230,396.000000 553.369690,396.000000 
	C595.860718,396.000000 638.351990,396.060516 680.842407,395.903778 
	C684.966187,395.888550 686.700684,397.037537 688.092407,401.062653 
	C700.950073,438.249481 714.032959,475.359009 727.187683,512.442261 
	C735.220886,535.087708 743.582214,557.616577 751.636108,580.254761 
	C759.635803,602.740540 767.433289,625.298401 775.341797,647.816711 
	C775.437012,648.087952 775.829468,648.254883 776.643555,648.946838 
	C779.306030,641.495300 781.872742,634.269043 784.468689,627.053345 
	C795.552368,596.245422 806.725159,565.469177 817.711182,534.626465 
	C828.263000,505.002869 838.565063,475.290436 849.094177,445.658752 
	C854.604553,430.151184 860.305786,414.710114 866.119202,399.313904 
	C866.642639,397.927521 868.621826,396.142456 869.930298,396.138031 
	C914.919678,395.986359 959.909729,396.026703 1004.899719,396.056824 
	C1005.181091,396.057007 1005.462402,396.299744 1006.139282,396.611267 
	C1001.191772,409.167145 996.193298,421.720276 991.294434,434.312195 
	C980.830444,461.208282 970.486816,488.151367 959.964294,515.024475 
	C950.382263,539.495544 940.602661,563.889160 930.961670,588.337280 
	C925.760925,601.525635 920.668274,614.756592 915.291321,628.289673 
z"/>
<path fill="#FFD700" opacity="1.000000" stroke="none" 
	d="
M460.999756,453.000000 
	C460.999847,529.833191 461.286713,606.168091 460.828644,682.498535 
	C460.687683,705.990662 448.854614,723.688293 428.738708,735.634705 
	C414.512268,744.083496 398.912140,747.083496 382.444977,747.057983 
	C300.612000,746.930908 218.777176,747.270142 136.946625,746.806152 
	C117.008018,746.693176 98.823792,739.379028 84.701141,724.925293 
	C73.367577,713.326050 66.926750,699.019043 66.988373,682.320801 
	C67.043098,667.492920 66.999855,652.664612 66.999855,637.523438 
	C112.772385,621.558472 158.534027,605.597351 204.999741,589.390625 
	C204.999741,601.452515 205.190857,612.732422 204.951859,624.003235 
	C204.645996,638.426331 216.656647,648.531128 229.245346,648.838501 
	C252.398178,649.403625 275.579773,649.289856 298.739166,648.880432 
	C310.756195,648.668030 323.063324,638.085632 323.041626,623.165405 
	C322.945831,557.332336 323.000244,491.499054 323.000244,425.665833 
	C323.000244,416.009827 323.000244,406.353851 323.000244,396.349243 
	C368.897522,396.349243 414.628387,396.349243 460.999756,396.349243 
	C460.999756,414.980133 460.999756,433.740082 460.999756,453.000000 
z"/>
</svg>